<?xml version="1.0" encoding="UTF-8" standalone="no"?>
<!-- Created with Inkscape (http://www.inkscape.org/) -->

<svg
   width="3.0231681mm"
   height="4.2700238mm"
   viewBox="0 0 3.0231681 4.2700238"
   version="1.1"
   id="svg1"
   xmlns="http://www.w3.org/2000/svg"
   xmlns:svg="http://www.w3.org/2000/svg">
  <defs
     id="defs1" />
  <g
     id="layer1"
     transform="translate(-149.03876,-82.029897)">
    <path
       d="m 150.26942,86.299922 q -0.33302,0 -0.61525,-0.174977 -0.28222,-0.174978 -0.45155,-0.536222 -0.16934,-0.361244 -0.16369,-0.922866 0.008,-0.812799 0.21731,-1.402643 0.20884,-0.592667 0.60396,-0.911578 0.39793,-0.321733 0.97366,-0.321733 0.33302,0 0.61525,0.166511 0.28222,0.163689 0.45155,0.513644 0.16933,0.349956 0.16087,0.911577 -0.008,0.809978 -0.22014,1.413933 -0.21166,0.601133 -0.60677,0.934155 -0.39511,0.330199 -0.9652,0.330199 z m 0.12135,-0.677332 q 0.26529,0 0.46567,-0.245534 0.2032,-0.248355 0.31609,-0.668866 0.11571,-0.423333 0.12135,-0.945444 0.006,-0.383821 -0.0677,-0.615243 -0.0734,-0.234245 -0.20602,-0.335845 -0.13265,-0.104422 -0.30762,-0.104422 -0.27094,0 -0.47132,0.239889 -0.20037,0.239889 -0.31326,0.654755 -0.11289,0.414866 -0.11853,0.939799 -0.003,0.386644 0.0593,0.626533 0.0649,0.237067 0.19474,0.347133 0.13264,0.107245 0.32737,0.107245 z m 0.11854,-1.016 q -0.16652,0 -0.23989,-0.110066 -0.0706,-0.112889 -0.0508,-0.333022 0.0198,-0.220133 0.11571,-0.327378 0.096,-0.110066 0.25964,-0.110066 0.16651,0 0.23989,0.110066 0.0734,0.110067 0.0508,0.327378 -0.0197,0.220133 -0.11571,0.333022 -0.096,0.110066 -0.25964,0.110066 z"
       id="text11"
       style="font-style:italic;font-weight:600;font-size:5.64444px;font-family:'Spline Sans Mono';-inkscape-font-specification:'Spline Sans Mono Semi-Bold Italic';fill:#ffffff;stroke-width:0.264583"
       aria-label="0" />
  </g>
</svg>
