<?xml version="1.0" encoding="UTF-8" standalone="no"?>
<!-- Created with Inkscape (http://www.inkscape.org/) -->

<svg
   width="3.2737827mm"
   height="4.1881733mm"
   viewBox="0 0 3.2737827 4.1881733"
   version="1.1"
   id="svg1"
   xmlns="http://www.w3.org/2000/svg"
   xmlns:svg="http://www.w3.org/2000/svg">
  <defs
     id="defs1" />
  <g
     id="layer1"
     transform="translate(-155.51027,-82.027082)">
    <path
       d="m 155.51028,86.215256 q 0.2286,-0.254 0.40076,-0.445911 0.17498,-0.191911 0.31326,-0.344311 0.14111,-0.1524 0.26247,-0.282222 0.12418,-0.132644 0.25118,-0.265289 0.127,-0.132644 0.27658,-0.285044 0.31608,-0.327377 0.53057,-0.561622 0.21449,-0.234244 0.32456,-0.428977 0.11006,-0.194733 0.11006,-0.397933 0,-0.217311 -0.13546,-0.3556 -0.13265,-0.141111 -0.38382,-0.141111 -0.20603,0 -0.37254,0.09031 -0.16651,0.08749 -0.27093,0.259644 -0.1016,0.169334 -0.11571,0.414867 0,0.02822 0,0.06491 0,0.03387 0,0.0508 h -0.7366 q -0.003,-0.0254 -0.006,-0.0508 0,-0.0254 0,-0.05362 0,-0.440267 0.19755,-0.767644 0.20038,-0.327378 0.5588,-0.508 0.35842,-0.180622 0.84102,-0.180622 0.34431,0 0.62089,0.118533 0.2794,0.118534 0.44309,0.3556 0.16369,0.234244 0.16369,0.587022 0,0.234244 -0.0875,0.454377 -0.0847,0.220133 -0.22296,0.420511 -0.13546,0.200378 -0.29633,0.381 -0.15804,0.1778 -0.30762,0.333022 -0.20602,0.217311 -0.34713,0.364066 -0.13829,0.143933 -0.24272,0.254 -0.10442,0.110067 -0.2032,0.217311 -0.0959,0.107244 -0.22295,0.245533 0.11007,-0.107244 0.20884,-0.1524 0.0988,-0.04515 0.21731,-0.05644 0.12136,-0.01129 0.28505,-0.01129 h 1.00471 l -0.0819,0.677333 z"
       id="text9"
       style="font-style:italic;font-weight:600;font-size:5.64444px;font-family:'Spline Sans Mono';-inkscape-font-specification:'Spline Sans Mono Semi-Bold Italic';fill:#ffffff;stroke-width:0.264583"
       aria-label="2" />
  </g>
</svg>
