<?xml version="1.0" encoding="UTF-8" standalone="no"?>
<!-- Created with Inkscape (http://www.inkscape.org/) -->

<svg
   width="3.0770409mm"
   height="4.2587276mm"
   viewBox="0 0 3.0770409 4.2587276"
   version="1.1"
   id="svg1"
   xmlns="http://www.w3.org/2000/svg"
   xmlns:svg="http://www.w3.org/2000/svg">
  <defs
     id="defs1" />
  <g
     id="layer1"
     transform="translate(-159.08521,-82.027082)">
    <path
       d="m 160.42378,86.285811 q -0.31045,0 -0.57856,-0.07902 -0.26811,-0.08184 -0.45438,-0.248355 -0.18626,-0.166511 -0.26528,-0.423333 -0.0762,-0.256822 -0.008,-0.6096 h 0.75071 q -0.0564,0.335844 0.11289,0.513644 0.17215,0.174978 0.5334,0.174978 0.19755,0 0.381,-0.06773 0.18626,-0.07056 0.30197,-0.220134 0.11854,-0.149577 0.11854,-0.392288 0,-0.273756 -0.18909,-0.397933 -0.18627,-0.124178 -0.47131,-0.124178 h -0.45156 l 0.0903,-0.634999 h 0.42898 q 0.20885,0 0.36125,-0.08467 0.1524,-0.08749 0.23424,-0.231422 0.0818,-0.146756 0.0818,-0.324555 0,-0.222956 -0.14675,-0.333022 -0.14676,-0.110067 -0.37253,-0.110067 -0.26247,0 -0.44874,0.141111 -0.18626,0.138289 -0.21166,0.465666 h -0.76483 q 0.0565,-0.423333 0.23989,-0.705555 0.18345,-0.282222 0.49954,-0.423333 0.31891,-0.143933 0.77328,-0.143933 0.62372,0 0.90876,0.251178 0.28504,0.251177 0.28504,0.677333 0,0.304799 -0.12417,0.544688 -0.12136,0.239889 -0.33303,0.392289 -0.21166,0.152399 -0.47413,0.194733 0.39229,0.02822 0.61807,0.2286 0.2286,0.197555 0.2286,0.587021 0,0.417689 -0.20602,0.728133 -0.2032,0.310444 -0.57574,0.4826 -0.37253,0.172155 -0.87206,0.172155 z"
       id="text8"
       style="font-style:italic;font-weight:600;font-size:5.64444px;font-family:'Spline Sans Mono';-inkscape-font-specification:'Spline Sans Mono Semi-Bold Italic';fill:#ffffff;stroke-width:0.264583"
       aria-label="3" />
  </g>
</svg>
