<?xml version="1.0" encoding="UTF-8" standalone="no"?>
<!-- Created with Inkscape (http://www.inkscape.org/) -->

<svg
   width="3.1329322mm"
   height="4.1740589mm"
   viewBox="0 0 3.1329322 4.1740589"
   version="1.1"
   id="svg1"
   xmlns="http://www.w3.org/2000/svg"
   xmlns:svg="http://www.w3.org/2000/svg">
  <defs
     id="defs1" />
  <g
     id="layer1"
     transform="translate(-165.8958,-82.111753)">
    <path
       d="m 167.19711,86.285811 q -0.32174,0 -0.5842,-0.1016 -0.25965,-0.1016 -0.43462,-0.282222 -0.17498,-0.183444 -0.24554,-0.426155 -0.0677,-0.242711 -0.0113,-0.522111 h 0.75918 q -0.0141,0.172156 0.0423,0.310445 0.0593,0.138288 0.2032,0.217311 0.14394,0.07902 0.37818,0.07902 0.24553,0 0.42616,-0.1016 0.18344,-0.104422 0.28504,-0.296333 0.1016,-0.191911 0.1016,-0.4572 0,-0.287866 -0.17215,-0.414866 -0.16934,-0.129822 -0.45438,-0.129822 -0.25682,0 -0.44874,0.09313 -0.19191,0.09031 -0.32737,0.200377 l -0.62654,-0.211666 0.53058,-2.130776 h 2.41018 l -0.11289,0.711199 h -1.74413 l -0.42051,1.275644 q 0.0931,-0.174978 0.24553,-0.299156 0.1524,-0.127 0.36124,-0.194733 0.21167,-0.07055 0.47414,-0.07055 0.20884,0 0.40357,0.05644 0.19474,0.05362 0.34714,0.174978 0.15522,0.121355 0.24271,0.318911 0.0903,0.197555 0.0903,0.482599 0,0.505178 -0.22013,0.894644 -0.22014,0.386644 -0.60678,0.606777 -0.38665,0.217311 -0.89182,0.217311 z"
       id="text6"
       style="font-style:italic;font-weight:600;font-size:5.64444px;font-family:'Spline Sans Mono';-inkscape-font-specification:'Spline Sans Mono Semi-Bold Italic';fill:#ffffff;stroke-width:0.264583"
       aria-label="5" />
  </g>
</svg>
