<?xml version="1.0" encoding="UTF-8" standalone="no"?>
<!-- Created with Inkscape (http://www.inkscape.org/) -->

<svg
   width="2.9830866mm"
   height="4.1740589mm"
   viewBox="0 0 2.9830866 4.1740589"
   version="1.1"
   id="svg1"
   xmlns="http://www.w3.org/2000/svg"
   xmlns:svg="http://www.w3.org/2000/svg">
  <defs
     id="defs1" />
  <g
     id="layer1"
     transform="translate(-169.33353,-82.111753)">
    <path
       d="m 170.64303,86.285811 q -0.3556,0 -0.65475,-0.160866 -0.29634,-0.160867 -0.47696,-0.474133 -0.1778,-0.316089 -0.1778,-0.776111 0,-0.420511 0.10442,-0.790221 0.10725,-0.372533 0.2794,-0.682978 0.17498,-0.313266 0.38383,-0.564444 0.20884,-0.254 0.41768,-0.434622 0.20885,-0.183444 0.38383,-0.290688 h 1.10066 q -0.27093,0.1524 -0.56726,0.378177 -0.29634,0.225778 -0.56445,0.510822 -0.26811,0.282222 -0.46002,0.6096 -0.19191,0.324555 -0.25118,0.680155 l -0.0113,-0.0508 q 0.0536,-0.115711 0.14958,-0.251178 0.096,-0.138289 0.23989,-0.259644 0.14675,-0.121356 0.34713,-0.197556 0.20038,-0.07902 0.4572,-0.07902 0.28505,0 0.50236,0.121356 0.22013,0.118533 0.34431,0.361244 0.127,0.239889 0.127,0.606777 0,0.412044 -0.14394,0.7366 -0.14393,0.321733 -0.38664,0.54751 -0.23989,0.225778 -0.53622,0.344311 -0.29633,0.115711 -0.60678,0.115711 z m 0.0847,-0.697088 q 0.23989,0 0.42051,-0.121356 0.18062,-0.121355 0.2794,-0.333022 0.1016,-0.211666 0.1016,-0.482599 0,-0.293511 -0.14676,-0.445911 -0.14675,-0.155222 -0.45155,-0.155222 -0.16934,0 -0.31045,0.04233 -0.14111,0.03951 -0.24835,0.107245 -0.10725,0.06491 -0.18909,0.143933 -0.0169,0.0254 -0.0367,0.121355 -0.0198,0.09313 -0.0339,0.2032 -0.0141,0.110067 -0.0141,0.186267 0,0.197555 0.0677,0.364066 0.0705,0.166511 0.20884,0.268111 0.14111,0.1016 0.35278,0.1016 z"
       id="text5"
       style="font-style:italic;font-weight:600;font-size:5.64444px;font-family:'Spline Sans Mono';-inkscape-font-specification:'Spline Sans Mono Semi-Bold Italic';fill:#ffffff;stroke-width:0.264583"
       aria-label="6" />
  </g>
</svg>
