<?xml version="1.0" encoding="UTF-8" standalone="no"?>
<!-- Created with Inkscape (http://www.inkscape.org/) -->

<svg
   width="3.0621192mm"
   height="4.2587276mm"
   viewBox="0 0 3.0621192 4.2587276"
   version="1.1"
   id="svg1"
   xmlns="http://www.w3.org/2000/svg"
   xmlns:svg="http://www.w3.org/2000/svg">
  <defs
     id="defs1" />
  <g
     id="layer1"
     transform="translate(-176.06452,-82.027082)">
    <path
       d="m 177.41072,86.285811 q -0.39229,0 -0.69709,-0.115711 -0.30198,-0.118533 -0.47696,-0.344311 -0.17215,-0.228599 -0.17215,-0.558799 0,-0.491067 0.29069,-0.815622 0.29351,-0.327377 0.80715,-0.372533 -0.23424,-0.03387 -0.39229,-0.1524 -0.15522,-0.118533 -0.23424,-0.287866 -0.079,-0.172156 -0.079,-0.358422 0,-0.381 0.18344,-0.6604 0.18345,-0.279399 0.51647,-0.434622 0.33302,-0.158044 0.77611,-0.158044 0.58702,0 0.889,0.259644 0.3048,0.256822 0.3048,0.697089 0,0.301977 -0.127,0.539044 -0.12418,0.234244 -0.33585,0.380999 -0.20884,0.143934 -0.46566,0.180623 0.39229,0.03104 0.61806,0.24271 0.2286,0.208845 0.2286,0.603956 0,0.406399 -0.20602,0.711199 -0.2032,0.3048 -0.57291,0.474133 -0.36689,0.169333 -0.85513,0.169333 z m 0.0875,-0.680155 q 0.19755,0 0.381,-0.06773 0.18344,-0.06773 0.30197,-0.214489 0.12136,-0.149577 0.12136,-0.389466 0,-0.273756 -0.18627,-0.395111 -0.18626,-0.121355 -0.47413,-0.121355 -0.25118,0 -0.43462,0.08467 -0.18345,0.08185 -0.28222,0.237067 -0.0988,0.155222 -0.0988,0.36971 0,0.251178 0.19473,0.375356 0.19473,0.121355 0.47696,0.121355 z m 0.22013,-1.834443 q 0.19473,0 0.34149,-0.08467 0.14958,-0.08749 0.23424,-0.231423 0.0847,-0.143933 0.0847,-0.316088 0,-0.222956 -0.14958,-0.333022 -0.14675,-0.112889 -0.37818,-0.112889 -0.30197,0 -0.4826,0.166511 -0.18062,0.163689 -0.18062,0.443089 0,0.186266 0.12136,0.327377 0.12418,0.141111 0.40922,0.141111 z"
       id="text3"
       style="font-style:italic;font-weight:600;font-size:5.64444px;font-family:'Spline Sans Mono';-inkscape-font-specification:'Spline Sans Mono Semi-Bold Italic';fill:#ffffff;stroke-width:0.264583"
       aria-label="8" />
  </g>
</svg>
