<?xml version="1.0" encoding="UTF-8" standalone="no"?>
<!-- Created with Inkscape (http://www.inkscape.org/) -->

<svg
   width="2.9887226mm"
   height="4.174067mm"
   viewBox="0 0 2.9887226 4.174067"
   version="1.1"
   id="svg1"
   xmlns="http://www.w3.org/2000/svg"
   xmlns:svg="http://www.w3.org/2000/svg">
  <defs
     id="defs1" />
  <g
     id="layer1"
     transform="translate(-179.58666,-82.041189)">
    <path
       d="m 179.9479,86.215256 q 0.22578,-0.1524 0.51082,-0.381 0.28787,-0.2286 0.5588,-0.516466 0.27376,-0.287867 0.47414,-0.615244 0.20037,-0.327378 0.254,-0.674511 l 0.0339,-0.0028 q -0.0593,0.129822 -0.15522,0.2794 -0.096,0.149577 -0.23424,0.282222 -0.13829,0.132644 -0.32456,0.217311 -0.18627,0.08184 -0.42333,0.08184 -0.29633,0 -0.53622,-0.149578 -0.23707,-0.149577 -0.37818,-0.417688 -0.14111,-0.270933 -0.14111,-0.626533 0,-0.389466 0.13546,-0.697088 0.13829,-0.307622 0.37536,-0.519289 0.23707,-0.214489 0.53622,-0.324555 0.29916,-0.110067 0.62653,-0.110067 0.381,0 0.67734,0.158045 0.29633,0.158044 0.46566,0.468488 0.17216,0.307622 0.17216,0.764822 0,0.369711 -0.0988,0.719666 -0.0988,0.347133 -0.26529,0.663222 -0.16369,0.313266 -0.36689,0.581377 -0.2032,0.268111 -0.41768,0.476955 -0.21167,0.206022 -0.40358,0.341489 z m 1.016,-1.94451 q 0.17216,0 0.31045,-0.04233 0.14111,-0.04233 0.254,-0.115711 0.11288,-0.07338 0.19755,-0.172156 0.0169,-0.02822 0.0339,-0.115711 0.0169,-0.09031 0.0282,-0.191911 0.0141,-0.104422 0.0141,-0.1778 0,-0.19191 -0.0677,-0.352777 -0.0677,-0.163689 -0.20602,-0.262466 -0.13829,-0.09878 -0.35278,-0.09878 -0.24271,0 -0.42051,0.1016 -0.1778,0.09878 -0.27658,0.285044 -0.0988,0.186266 -0.0988,0.4572 0,0.321733 0.14958,0.505177 0.1524,0.180622 0.43462,0.180622 z"
       id="text2"
       style="font-style:italic;font-weight:600;font-size:5.64444px;font-family:'Spline Sans Mono';-inkscape-font-specification:'Spline Sans Mono Semi-Bold Italic';fill:#ffffff;stroke-width:0.264583"
       aria-label="9" />
  </g>
</svg>
