<?xml version="1.0" encoding="UTF-8" standalone="no"?>
<!-- Created with Inkscape (http://www.inkscape.org/) -->

<svg
   width="2.9548624mm"
   height="4.1035047mm"
   viewBox="0 0 2.9548624 4.1035047"
   version="1.1"
   id="svg1"
   xmlns="http://www.w3.org/2000/svg"
   xmlns:svg="http://www.w3.org/2000/svg">
  <defs
     id="defs1" />
  <g
     id="layer1"
     transform="translate(-64.332765,-82.111753)">
    <path
       d="m 64.332762,86.215256 0.505177,-4.103508 h 1.244599 q 0.4318,0 0.697088,0.110066 0.265289,0.107245 0.386645,0.299156 0.121355,0.191911 0.121355,0.44591 0,0.2794 -0.110067,0.508 -0.107244,0.225778 -0.299155,0.369711 -0.189089,0.143933 -0.434622,0.174978 0.245533,0.01975 0.4318,0.121355 0.186266,0.09878 0.290689,0.273755 0.104422,0.172156 0.104422,0.412044 0,0.412045 -0.206022,0.725311 -0.2032,0.313266 -0.567267,0.488244 -0.364066,0.174978 -0.85231,0.174978 z m 0.846666,-0.6096 h 0.474133 q 0.364066,0 0.57291,-0.197555 0.208845,-0.197556 0.208845,-0.5334 0,-0.208844 -0.09031,-0.310444 -0.08749,-0.104422 -0.228599,-0.135467 -0.141111,-0.03104 -0.3048,-0.03104 h -0.485422 z m 0.217311,-1.777998 h 0.386644 q 0.214488,0 0.369711,-0.0762 0.155222,-0.07902 0.24271,-0.222956 0.09031,-0.146755 0.1016,-0.349955 0.01411,-0.245533 -0.127,-0.352778 -0.138288,-0.110066 -0.451555,-0.110066 h -0.386644 z"
       id="text36"
       style="font-style:italic;font-weight:600;font-size:5.64444px;font-family:'Spline Sans Mono';-inkscape-font-specification:'Spline Sans Mono Semi-Bold Italic';fill:#ffffff;stroke-width:0.264583"
       aria-label="B" />
  </g>
</svg>
