<?xml version="1.0" encoding="UTF-8" standalone="no"?>
<!-- Created with Inkscape (http://www.inkscape.org/) -->

<svg
   width="2.9916859mm"
   height="4.2615538mm"
   viewBox="0 0 2.9916859 4.2615538"
   version="1.1"
   id="svg1"
   xmlns="http://www.w3.org/2000/svg"
   xmlns:svg="http://www.w3.org/2000/svg">
  <defs
     id="defs1" />
  <g
     id="layer1"
     transform="translate(-67.818201,-82.035543)">
    <path
       d="m 69.048693,86.2971 q -0.578556,0 -0.905933,-0.426155 -0.324555,-0.428978 -0.324555,-1.227666 0,-0.564444 0.132644,-1.038577 0.135467,-0.476955 0.383822,-0.829733 0.248355,-0.352777 0.589844,-0.544688 0.341489,-0.194733 0.753533,-0.194733 0.414866,0 0.685799,0.180622 0.270933,0.1778 0.381,0.530577 0.110066,0.349956 0.03387,0.860777 h -0.759177 q 0.03387,-0.273755 -0.0028,-0.460021 -0.03387,-0.189089 -0.143933,-0.285045 -0.107245,-0.09596 -0.296333,-0.09596 -0.237067,0 -0.417689,0.149577 -0.180622,0.146756 -0.301977,0.4064 -0.121356,0.259644 -0.183445,0.592666 -0.06209,0.333022 -0.06209,0.697089 0,0.482599 0.132645,0.719666 0.132644,0.234244 0.448733,0.234244 0.183444,0 0.301977,-0.07338 0.121356,-0.07338 0.194734,-0.206022 0.07338,-0.135466 0.118533,-0.316088 h 0.778933 q -0.04798,0.341488 -0.186267,0.592666 -0.135467,0.248355 -0.341489,0.412044 -0.206022,0.163689 -0.462844,0.242711 -0.256822,0.07902 -0.54751,0.07902 z"
       id="text35"
       style="font-style:italic;font-weight:600;font-size:5.64444px;font-family:'Spline Sans Mono';-inkscape-font-specification:'Spline Sans Mono Semi-Bold Italic';fill:#ffffff;stroke-width:0.264583"
       aria-label="C" />
  </g>
</svg>
