<?xml version="1.0" encoding="UTF-8" standalone="no"?>
<!-- Created with Inkscape (http://www.inkscape.org/) -->

<svg
   width="3.1891141mm"
   height="4.1035047mm"
   viewBox="0 0 3.1891141 4.1035047"
   version="1.1"
   id="svg1"
   xmlns="http://www.w3.org/2000/svg"
   xmlns:svg="http://www.w3.org/2000/svg">
  <defs
     id="defs1" />
  <g
     id="layer1"
     transform="translate(-71.08069,-82.111753)">
    <path
       d="m 71.862447,86.215256 -0.110066,-0.716844 h 0.474133 q 0.389466,0 0.666044,-0.206022 0.276577,-0.208845 0.423333,-0.592666 0.146755,-0.383822 0.146755,-0.905933 0,-0.366889 -0.09596,-0.575733 -0.09596,-0.211667 -0.3048,-0.299155 -0.208845,-0.08749 -0.547511,-0.08749 h -0.454377 l 0.307622,-0.719666 h 0.290688 q 0.801511,0 1.205088,0.392288 0.4064,0.392289 0.4064,1.224844 0,0.728133 -0.265289,1.289754 -0.262466,0.561622 -0.736599,0.880533 -0.474133,0.316089 -1.114777,0.316089 z m -0.781755,0 0.505178,-4.103508 h 0.781755 l -0.505178,4.103508 z"
       id="text34"
       style="font-style:italic;font-weight:600;font-size:5.64444px;font-family:'Spline Sans Mono';-inkscape-font-specification:'Spline Sans Mono Semi-Bold Italic';fill:#ffffff;stroke-width:0.264583"
       aria-label="D" />
  </g>
</svg>
