<?xml version="1.0" encoding="UTF-8" standalone="no"?>
<!-- Created with Inkscape (http://www.inkscape.org/) -->

<svg
   width="3.0514691mm"
   height="4.2587924mm"
   viewBox="0 0 3.0514691 4.2587924"
   version="1.1"
   id="svg1"
   xmlns="http://www.w3.org/2000/svg"
   xmlns:svg="http://www.w3.org/2000/svg">
  <defs
     id="defs1" />
  <g
     id="layer1"
     transform="translate(-81.339273,-82.03549)">
    <path
       d="m 82.719532,86.294278 q -0.451556,0 -0.762,-0.222955 -0.310444,-0.225778 -0.468488,-0.618067 -0.155222,-0.392288 -0.149578,-0.891821 0.0056,-0.773289 0.242711,-1.337733 0.239889,-0.567266 0.663222,-0.874888 0.426155,-0.310444 0.993421,-0.313266 0.375355,-0.0028 0.643466,0.138289 0.270933,0.138288 0.403578,0.437444 0.135466,0.296333 0.09595,0.767644 h -0.730955 q 0.01129,-0.160867 -0.02258,-0.273756 -0.03387,-0.115711 -0.107245,-0.189089 -0.07055,-0.0762 -0.172155,-0.112888 -0.1016,-0.03669 -0.222956,-0.03669 -0.304799,0 -0.524933,0.208844 -0.217311,0.206022 -0.335844,0.595489 -0.118533,0.389466 -0.127,0.942621 0,0.316089 0.06773,0.553155 0.07055,0.237067 0.211666,0.366889 0.141111,0.129822 0.349955,0.129822 0.158045,0 0.321733,-0.03951 0.163689,-0.04233 0.296334,-0.146756 l 0.09313,-0.716844 h -0.6096 l 0.09313,-0.688621 h 1.320799 l -0.239889,1.794932 q -0.259644,0.262466 -0.615244,0.395111 -0.3556,0.132644 -0.708377,0.132644 z"
       id="text31"
       style="font-style:italic;font-weight:600;font-size:5.64444px;font-family:'Spline Sans Mono';-inkscape-font-specification:'Spline Sans Mono Semi-Bold Italic';fill:#ffffff;stroke-width:0.264583"
       aria-label="G" />
  </g>
</svg>
