<?xml version="1.0" encoding="UTF-8" standalone="no"?>
<!-- Created with Inkscape (http://www.inkscape.org/) -->

<svg
   width="3.2342663mm"
   height="4.1881733mm"
   viewBox="0 0 3.2342663 4.1881733"
   version="1.1"
   id="svg1"
   xmlns="http://www.w3.org/2000/svg"
   xmlns:svg="http://www.w3.org/2000/svg">
  <defs
     id="defs1" />
  <g
     id="layer1"
     transform="translate(-91.375284,-82.111753)">
    <path
       d="m 92.667861,86.299922 q -0.318911,0 -0.578555,-0.09031 -0.259644,-0.09031 -0.437444,-0.282222 -0.174978,-0.191911 -0.242711,-0.49671 -0.06773,-0.3048 0,-0.7366 h 0.778933 q -0.04516,0.358422 0.01693,0.553155 0.06209,0.191911 0.2032,0.265289 0.143933,0.07338 0.333022,0.07338 0.138289,0 0.259644,-0.03669 0.121356,-0.03951 0.217311,-0.127 0.09596,-0.09031 0.160867,-0.242711 0.06491,-0.155222 0.09313,-0.389466 l 0.327377,-2.678287 h 0.809978 l -0.318911,2.610553 q -0.06773,0.567267 -0.282222,0.917222 -0.211667,0.347133 -0.553155,0.505177 -0.338667,0.155222 -0.7874,0.155222 z"
       id="text28"
       style="font-style:italic;font-weight:600;font-size:5.64444px;font-family:'Spline Sans Mono';-inkscape-font-specification:'Spline Sans Mono Semi-Bold Italic';fill:#ffffff;stroke-width:0.264583"
       aria-label="J" />
  </g>
</svg>
