<?xml version="1.0" encoding="UTF-8" standalone="no"?>
<!-- Created with Inkscape (http://www.inkscape.org/) -->

<svg
   width="3.2624865mm"
   height="4.1035047mm"
   viewBox="0 0 3.2624865 4.1035047"
   version="1.1"
   id="svg1"
   xmlns="http://www.w3.org/2000/svg"
   xmlns:svg="http://www.w3.org/2000/svg">
  <defs
     id="defs1" />
  <g
     id="layer1"
     transform="translate(-111.75455,-82.111753)">
    <path
       d="m 112.9286,84.83519 q -0.0847,0 -0.13829,-0.06209 -0.0508,-0.06491 -0.0395,-0.172155 l -0.16369,-0.273756 0.21731,-0.160866 h 0.60114 q 0.38382,0 0.58702,-0.217311 0.20602,-0.217311 0.20602,-0.635 0,-0.189088 -0.0734,-0.304799 -0.0705,-0.115711 -0.21731,-0.166511 -0.14393,-0.05362 -0.3556,-0.05362 h -0.59266 l -0.15523,-0.677333 q 0.0875,0 0.20603,0 0.11853,0 0.24553,0 0.127,0 0.23989,0 0.11289,0 0.18909,0 0.42897,0 0.72531,0.112889 0.29633,0.110066 0.45155,0.341488 0.15522,0.231422 0.15522,0.601133 0,0.491066 -0.19755,0.869244 -0.19473,0.375355 -0.56162,0.587022 -0.36407,0.211666 -0.87771,0.211666 z m -1.17404,1.380066 0.51929,-4.103508 h 0.7874 l -0.51929,4.103508 z"
       id="text22"
       style="font-style:italic;font-weight:600;font-size:5.64444px;font-family:'Spline Sans Mono';-inkscape-font-specification:'Spline Sans Mono Semi-Bold Italic';fill:#ffffff;stroke-width:0.264583"
       aria-label="P" />
  </g>
</svg>
