<?xml version="1.0" encoding="UTF-8" standalone="no"?>
<!-- Created with Inkscape (http://www.inkscape.org/) -->

<svg
   width="3.0705731mm"
   height="5.0771775mm"
   viewBox="0 0 3.0705731 5.0771775"
   version="1.1"
   id="svg1"
   xmlns="http://www.w3.org/2000/svg"
   xmlns:svg="http://www.w3.org/2000/svg">
  <defs
     id="defs1" />
  <g
     id="layer1"
     transform="translate(-115.14403,-82.029897)">
    <path
       d="m 116.40275,86.299922 q -0.6096,0 -0.93416,-0.423333 -0.32455,-0.423333 -0.32455,-1.185332 0,-0.804333 0.22578,-1.399821 0.22577,-0.598311 0.63217,-0.928511 0.40923,-0.333022 0.94827,-0.333022 0.61524,0 0.9398,0.412044 0.32455,0.412045 0.32455,1.174044 0,0.601133 -0.13264,1.095021 -0.12982,0.491067 -0.37253,0.849489 -0.23989,0.355599 -0.57291,0.54751 -0.3302,0.191911 -0.73378,0.191911 z m 0.096,-0.72531 q 0.20038,0 0.36689,-0.135467 0.16934,-0.138289 0.29069,-0.392288 0.12136,-0.254 0.18909,-0.612422 0.0677,-0.361244 0.0706,-0.804333 0,-0.454377 -0.14112,-0.663222 -0.14111,-0.211666 -0.41768,-0.211666 -0.27094,0 -0.47696,0.234244 -0.20602,0.231422 -0.32173,0.6604 -0.11571,0.428977 -0.11571,1.024466 -0.003,0.462844 0.13829,0.682977 0.14393,0.217311 0.41768,0.217311 z m 0.43463,1.532465 -0.44309,-1.03011 h 0.61806 q 0.0564,0 0.13265,0.03669 0.0762,0.03669 0.12982,0.135466 l 0.46002,0.857955 z"
       id="text21"
       style="font-style:italic;font-weight:600;font-size:5.64444px;font-family:'Spline Sans Mono';-inkscape-font-specification:'Spline Sans Mono Semi-Bold Italic';fill:#ffffff;stroke-width:0.264583"
       aria-label="Q" />
  </g>
</svg>
