<?xml version="1.0" encoding="UTF-8" standalone="no"?>
<!-- Created with Inkscape (http://www.inkscape.org/) -->

<svg
   width="3.0338829mm"
   height="4.1035047mm"
   viewBox="0 0 3.0338829 4.1035047"
   version="1.1"
   id="svg1"
   xmlns="http://www.w3.org/2000/svg"
   xmlns:svg="http://www.w3.org/2000/svg">
  <defs
     id="defs1" />
  <g
     id="layer1"
     transform="translate(-118.53918,-82.111753)">
    <path
       d="m 120.65302,86.215256 -0.68015,-1.650999 h -0.508 l -0.18063,-0.04233 0.14394,-0.505178 0.0113,-0.09031 h 0.61806 q 0.23142,0 0.39511,-0.08749 0.16369,-0.08749 0.24836,-0.253999 0.0875,-0.166511 0.0875,-0.400756 0,-0.1778 -0.0734,-0.273755 -0.0734,-0.09596 -0.20038,-0.132644 -0.12418,-0.03669 -0.2794,-0.03669 l -0.49671,-0.0028 -0.0903,-0.256822 -0.0706,-0.369711 q 0.11572,0 0.23707,0 0.12136,0 0.254,0 0.13265,0 0.28222,0 0.56162,0 0.89182,0.239888 0.3302,0.239889 0.3302,0.739422 0,0.364066 -0.14393,0.666044 -0.14111,0.299155 -0.42051,0.491066 -0.2794,0.191911 -0.69427,0.231422 l 0.0508,-0.03951 q 0.13265,-0.0056 0.22578,0.01411 0.096,0.01693 0.16369,0.0762 0.0677,0.05927 0.11571,0.1778 l 0.62371,1.507066 z m -2.11384,0 0.50518,-4.103508 h 0.78175 l -0.50518,4.103508 z"
       id="text20"
       style="font-style:italic;font-weight:600;font-size:5.64444px;font-family:'Spline Sans Mono';-inkscape-font-specification:'Spline Sans Mono Semi-Bold Italic';fill:#ffffff;stroke-width:0.264583"
       aria-label="R" />
  </g>
</svg>
