<?xml version="1.0" encoding="UTF-8" standalone="no"?>
<!-- Created with Inkscape (http://www.inkscape.org/) -->

<svg
   width="3.0276251mm"
   height="4.2248635mm"
   viewBox="0 0 3.0276251 4.2248635"
   version="1.1"
   id="svg1"
   xmlns="http://www.w3.org/2000/svg"
   xmlns:svg="http://www.w3.org/2000/svg">
  <defs
     id="defs1" />
  <g
     id="layer1"
     transform="translate(-121.89814,-82.046835)">
    <path
       d="m 123.22688,86.2717 q -0.25965,0 -0.51647,-0.07902 -0.254,-0.07902 -0.45437,-0.242711 -0.20038,-0.163689 -0.29634,-0.420511 -0.096,-0.259644 -0.0423,-0.618066 h 0.75071 q -0.031,0.237067 0.0367,0.389466 0.0677,0.1524 0.22578,0.225778 0.15804,0.07056 0.39228,0.07056 0.21167,0 0.36972,-0.06491 0.15804,-0.06491 0.24553,-0.180622 0.0903,-0.115711 0.0903,-0.270933 0.006,-0.1524 -0.079,-0.251177 -0.0819,-0.09878 -0.24836,-0.180622 -0.16651,-0.08184 -0.42051,-0.180622 -0.30762,-0.121356 -0.54751,-0.282223 -0.23707,-0.160866 -0.36971,-0.378177 -0.12982,-0.217311 -0.127,-0.505177 0.008,-0.381 0.19191,-0.663222 0.18345,-0.282222 0.51364,-0.437444 0.3302,-0.155222 0.78458,-0.155222 0.59549,0 0.91722,0.307622 0.32174,0.307622 0.27658,0.922866 h -0.72813 q 0.0141,-0.174978 -0.048,-0.296333 -0.0593,-0.124178 -0.18344,-0.189089 -0.12418,-0.06491 -0.3048,-0.06491 -0.27658,0 -0.46003,0.121355 -0.18344,0.118533 -0.18908,0.400755 -0.003,0.194734 0.14675,0.321734 0.14958,0.124177 0.52776,0.282222 0.22013,0.09595 0.42333,0.186266 0.20602,0.09031 0.36689,0.211667 0.16369,0.118533 0.25682,0.29351 0.0931,0.174978 0.0875,0.4318 -0.006,0.389466 -0.20038,0.680155 -0.19191,0.290689 -0.54751,0.454378 -0.35278,0.160866 -0.84102,0.160866 z"
       id="text19"
       style="font-style:italic;font-weight:600;font-size:5.64444px;font-family:'Spline Sans Mono';-inkscape-font-specification:'Spline Sans Mono Semi-Bold Italic';fill:#ffffff;stroke-width:0.264583"
       aria-label="S" />
  </g>
</svg>
