<?xml version="1.0" encoding="UTF-8" standalone="no"?>
<!-- Created with Inkscape (http://www.inkscape.org/) -->

<svg
   width="3.2037852mm"
   height="4.165597mm"
   viewBox="0 0 3.2037852 4.165597"
   version="1.1"
   id="svg1"
   xmlns="http://www.w3.org/2000/svg"
   xmlns:svg="http://www.w3.org/2000/svg">
  <defs
     id="defs1" />
  <g
     id="layer1"
     transform="translate(-128.71836,-82.1061)">
    <path
       d="m 129.98328,86.2717 q -0.29634,0 -0.54751,-0.09313 -0.24836,-0.09313 -0.42334,-0.285044 -0.17215,-0.191911 -0.24835,-0.4826 -0.0762,-0.290689 -0.0254,-0.688622 l 0.32173,-2.616198 h 0.78176 l -0.3048,2.497665 q -0.0311,0.256822 -0.0169,0.440266 0.0169,0.180622 0.0819,0.296334 0.0649,0.115711 0.18344,0.172155 0.11853,0.05362 0.29069,0.05362 0.20884,0 0.36124,-0.1016 0.15523,-0.1016 0.254,-0.313266 0.0988,-0.211667 0.14111,-0.547511 l 0.30763,-2.49202 h 0.78175 l -0.32173,2.610553 q -0.0649,0.522111 -0.29069,0.869244 -0.22578,0.344311 -0.57009,0.513644 -0.34149,0.166511 -0.75635,0.166511 z"
       id="text17"
       style="font-style:italic;font-weight:600;font-size:5.64444px;font-family:'Spline Sans Mono';-inkscape-font-specification:'Spline Sans Mono Semi-Bold Italic';fill:#ffffff;stroke-width:0.264583"
       aria-label="U" />
  </g>
</svg>
