<?xml version="1.0" encoding="UTF-8" standalone="no"?>
<!-- Created with Inkscape (http://www.inkscape.org/) -->

<svg
   width="3.5051961mm"
   height="4.1035047mm"
   viewBox="0 0 3.5051961 4.1035047"
   version="1.1"
   id="svg1"
   xmlns="http://www.w3.org/2000/svg"
   xmlns:svg="http://www.w3.org/2000/svg">
  <defs
     id="defs1" />
  <g
     id="layer1"
     transform="translate(-135.50074,-82.111753)">
    <path
       d="m 135.56565,86.215256 -0.0649,-4.103508 h 0.79869 l -0.14393,2.968975 q -0.006,0.149578 -0.008,0.276578 0,0.124178 -0.0226,0.318911 h 0.0198 l 0.20038,-0.951088 0.38382,-1.687688 h 0.8382 l -0.0452,1.687688 -0.0339,0.951088 h 0.0226 q 0.031,-0.2286 0.0564,-0.349956 0.0282,-0.124177 0.0536,-0.245533 l 0.57856,-2.968975 h 0.80715 l -1.07244,4.103508 h -0.88618 l -0.006,-1.261533 q 0,-0.189088 0,-0.366888 0,-0.180622 0.006,-0.383822 0.006,-0.206022 0.0198,-0.471311 h -0.0169 q -0.0452,0.262467 -0.0903,0.465666 -0.0452,0.2032 -0.0931,0.383822 -0.0452,0.1778 -0.0988,0.372533 l -0.32738,1.261533 z"
       id="text15"
       style="font-style:italic;font-weight:600;font-size:5.64444px;font-family:'Spline Sans Mono';-inkscape-font-specification:'Spline Sans Mono Semi-Bold Italic';fill:#ffffff;stroke-width:0.264583"
       aria-label="W" />
  </g>
</svg>
